<?xml version="1.0" encoding="utf-8"?>
<!-- Generator: Adobe Illustrator 22.1.0, SVG Export Plug-In . SVG Version: 6.00 Build 0)  -->
<svg version="1.1" id="check" xmlns="http://www.w3.org/2000/svg" xmlns:xlink="http://www.w3.org/1999/xlink" x="0px" y="0px"
	 viewBox="0 0 50 50" style="enable-background:new 0 0 50 50;" xml:space="preserve">
<path d="M25,14c6.1,0,11,4.9,11,11s-4.9,11-11,11s-11-4.9-11-11S18.9,14,25,14 M25,10c-8.3,0-15,6.7-15,15s6.7,15,15,15
	s15-6.7,15-15S33.3,10,25,10L25,10z"/>
<path d="M29.5,19l-5.8,5.8l-3.5-3.5c-0.1-0.1-0.3-0.1-0.4,0l-3.6,3.6c-0.1,0.1-0.1,0.3,0,0.4l7.3,7.3c0.1,0.1,0.3,0.1,0.4,0l9.6-9.6
	c0.1-0.1,0.1-0.3,0-0.4L30,19C29.8,18.8,29.7,18.8,29.5,19z"/>
</svg>
