<?xml version="1.0" encoding="utf-8"?>
<!-- Generator: Adobe Illustrator 22.1.0, SVG Export Plug-In . SVG Version: 6.00 Build 0)  -->
<svg version="1.1" id="Close" xmlns="http://www.w3.org/2000/svg" xmlns:xlink="http://www.w3.org/1999/xlink" x="0px" y="0px"
	 viewBox="0 0 50 50" style="enable-background:new 0 0 50 50;" xml:space="preserve">
<path d="M25,13.5c6.3,0,11.5,5.2,11.5,11.5S31.3,36.5,25,36.5S13.5,31.3,13.5,25S18.7,13.5,25,13.5 M25,11c-7.7,0-14,6.3-14,14
	s6.3,14,14,14s14-6.3,14-14S32.7,11,25,11L25,11z"/>
<path d="M29.2,18.6L25,22.9l-4.2-4.2c-0.2-0.2-0.5-0.2-0.7,0l-1.4,1.4c-0.2,0.2-0.2,0.5,0,0.7l4.2,4.2l-4.2,4.2
	c-0.2,0.2-0.2,0.5,0,0.7l1.4,1.4c0.2,0.2,0.5,0.2,0.7,0l4.2-4.2l4.2,4.2c0.2,0.2,0.5,0.2,0.7,0l1.4-1.4c0.2-0.2,0.2-0.5,0-0.7
	L27.1,25l4.2-4.2c0.2-0.2,0.2-0.5,0-0.7l-1.4-1.4C29.8,18.4,29.4,18.4,29.2,18.6z"/>
</svg>
