<?xml version="1.0" encoding="utf-8"?>
<!-- Generator: Adobe Illustrator 22.1.0, SVG Export Plug-In . SVG Version: 6.00 Build 0)  -->
<svg version="1.1" id="discussion_B" xmlns="http://www.w3.org/2000/svg" xmlns:xlink="http://www.w3.org/1999/xlink" x="0px"
	 y="0px" viewBox="0 0 50 50" style="enable-background:new 0 0 50 50;" xml:space="preserve">
<path d="M36.5,24.2c-2.2,4.6-7.6,7.9-14,7.9c0,0-0.1,0-0.1,0c-0.3,0.2-0.6,0.4-0.9,0.6c1.3,1.1,3.1,1.9,5.1,2.2l0.9,0.1l0.7,0.6
	C29,36.4,30,37,31,37.4l-1.3-1.9l3.5-1.5c3-1.3,4.9-3.6,4.9-6.1C38,26.6,37.4,25.3,36.5,24.2z"/>
<path d="M22.5,12C16.7,12,12,15.5,12,19.8c0,2.4,1.6,4.8,4.3,6.3l2.9,1.6L18,29.4c0.7-0.3,1.4-0.7,2.1-1.3l0.8-0.6l1.5,0.1
	c5.8,0,10.5-3.5,10.5-7.8C33,15.5,28.3,12,22.5,12z"/>
</svg>
