<?xml version="1.0" encoding="utf-8"?>
<!-- Generator: Adobe Illustrator 22.1.0, SVG Export Plug-In . SVG Version: 6.00 Build 0)  -->
<svg version="1.1" id="discussion_A" xmlns="http://www.w3.org/2000/svg" xmlns:xlink="http://www.w3.org/1999/xlink" x="0px"
	 y="0px" viewBox="0 0 50 50" style="enable-background:new 0 0 50 50;" xml:space="preserve">
<path d="M41,28c0-2.7-1.4-5.2-3.6-7c-0.1,0.9-0.4,1.8-0.7,2.7c1.1,1.2,1.8,2.7,1.8,4.3c0,2.7-2,5.2-5.2,6.6l-2.9,1.2l1.8,2.6
	c0,0,0,0,0,0.1c-1.5-0.4-3.1-1.2-4.5-2.5l-0.6-0.5l-0.7-0.1c-2.2-0.3-4.1-1.2-5.5-2.4c-0.7,0.4-1.6,0.8-2.5,1.1
	c1.8,1.9,4.5,3.3,7.6,3.8c2,1.8,4.8,3.3,7.7,3.3c1.4,0,2.7-0.3,4.1-1.1c-1.7-1-3-2.1-3.7-3.1C38.3,35.2,41,31.9,41,28z"/>
<path d="M22.5,11.5c6.1,0,11,3.7,11,8.3s-4.9,8.3-11,8.3c-0.1,0-0.2,0-0.2,0c-0.1,0-0.2,0-0.3,0l-0.9,0l-0.7,0.5
	c-1.2,0.9-2.5,1.5-3.7,1.8c0.1-0.1,0.1-0.2,0.2-0.3l1.5-2.3l-2.4-1.3c-2.9-1.6-4.6-4.1-4.6-6.7C11.5,15.2,16.4,11.5,22.5,11.5
	 M22.5,9C15,9,9,13.8,9,19.8c0,3.7,2.3,6.9,5.8,8.9c-0.8,1.1-2,2.2-3.8,3.3c1.4,0.8,2.7,1.1,4.1,1.1c2.5,0,4.9-1.1,6.8-2.5
	c0.2,0,0.4,0,0.6,0C30,30.6,36,25.8,36,19.8S30,9,22.5,9L22.5,9z"/>
<rect x="17" y="16" width="11" height="2.5"/>
<rect x="17" y="20.5" width="6.5" height="2.5"/>
<rect x="25.5" y="20.5" width="2.5" height="2.5"/>
</svg>
