<?xml version="1.0" encoding="utf-8"?>
<!-- Generator: Adobe Illustrator 22.1.0, SVG Export Plug-In . SVG Version: 6.00 Build 0)  -->
<svg version="1.1" id="exclamation_small" xmlns="http://www.w3.org/2000/svg" xmlns:xlink="http://www.w3.org/1999/xlink" x="0px"
	 y="0px" viewBox="0 0 50 50" style="enable-background:new 0 0 50 50;" xml:space="preserve">
<path d="M25,14c6.1,0,11,4.9,11,11s-4.9,11-11,11s-11-4.9-11-11S18.9,14,25,14 M25,10c-8.3,0-15,6.7-15,15s6.7,15,15,15
	s15-6.7,15-15S33.3,10,25,10L25,10z"/>
<path d="M25.9,17l-5.1,1.1c-0.1,0-0.2,0.2-0.2,0.3l3,9.6c0,0.1,0.2,0.2,0.3,0.2l3.3-0.7c0.1,0,0.2-0.1,0.2-0.3l-1.2-10
	C26.2,17.1,26.1,17,25.9,17L25.9,17z"/>
<path d="M27.4,28.7l-3.2,0.7c-0.1,0-0.2,0.2-0.2,0.3l0.7,3.3c0,0.1,0.2,0.2,0.3,0.2l3.2-0.7c0.1,0,0.2-0.2,0.2-0.3l-0.7-3.3
	C27.7,28.7,27.6,28.6,27.4,28.7L27.4,28.7z"/>
</svg>
