<?xml version="1.0" encoding="utf-8"?>
<!-- Generator: Adobe Illustrator 22.1.0, SVG Export Plug-In . SVG Version: 6.00 Build 0)  -->
<svg version="1.1" id="exclamation_A" xmlns="http://www.w3.org/2000/svg" xmlns:xlink="http://www.w3.org/1999/xlink" x="0px"
	 y="0px" viewBox="0 0 50 50" style="enable-background:new 0 0 50 50;" xml:space="preserve">
<path d="M30.5,35.1l0.6,2.9l-2.8,0.6l-0.6-2.9L30.5,35.1 M32,32.2l-6.7,1.4c-0.3,0.1-0.4,0.3-0.4,0.6l1.5,6.8
	c0.1,0.3,0.3,0.4,0.6,0.4l6.7-1.4c0.3-0.1,0.4-0.3,0.4-0.6l-1.5-6.8C32.5,32.4,32.2,32.2,32,32.2L32,32.2z"/>
<path d="M27.2,11.3l2,16.5L26,28.4l-4.9-15.8L27.2,11.3 M28.8,8.4l-10.4,2.2c-0.3,0.1-0.5,0.4-0.4,0.6l6.1,19.7
	c0.1,0.2,0.3,0.4,0.6,0.3l6.8-1.4c0.3-0.1,0.4-0.3,0.4-0.5L29.4,8.8C29.4,8.5,29.1,8.3,28.8,8.4L28.8,8.4z"/>
</svg>
