<?xml version="1.0" encoding="utf-8"?>
<!-- Generator: Adobe Illustrator 22.1.0, SVG Export Plug-In . SVG Version: 6.00 Build 0)  -->
<svg version="1.1" id="Image" xmlns="http://www.w3.org/2000/svg" xmlns:xlink="http://www.w3.org/1999/xlink" x="0px" y="0px"
	 viewBox="0 0 50 50" style="enable-background:new 0 0 50 50;" xml:space="preserve">
<path d="M25,11c-7.7,0-14,6.3-14,14s6.3,14,14,14s14-6.3,14-14S32.7,11,25,11z M19.9,15.6c2.1-0.4,3.9,1.4,3.5,3.5
	c-0.2,1.2-1.2,2.1-2.4,2.4c-2.1,0.4-3.9-1.4-3.5-3.5C17.8,16.7,18.7,15.8,19.9,15.6z M25,36.5c-4.4,0-8.3-2.5-10.2-6.2l4.2-4L22,29
	l7.4-8.5l6.8,6.8C35.2,32.5,30.6,36.5,25,36.5z"/>
</svg>
