<?xml version="1.0" encoding="utf-8"?>
<!-- Generator: Adobe Illustrator 22.1.0, SVG Export Plug-In . SVG Version: 6.00 Build 0)  -->
<svg version="1.1" id="lightbulb_A" xmlns="http://www.w3.org/2000/svg" xmlns:xlink="http://www.w3.org/1999/xlink" x="0px"
	 y="0px" viewBox="0 0 50 50" style="enable-background:new 0 0 50 50;" xml:space="preserve">
<path d="M30,31.5c2.1-4,6.2-5.1,7.3-10c1.3-5.5-2.2-10.9-7.7-12.2s-11,2-12.2,7.6c-1.1,4.9,2.1,7.7,2.2,12.2
	C19,29,18.4,29.4,18.2,30l-0.8,3.6c-0.2,0.9,0.2,1.8,1,2.3v2.5c0,0.7,0.4,1.3,1,1.4l6.1,1.4c0.6,0.1,1.2-0.2,1.5-0.8l1.1-2.3
	c0.9-0.1,1.7-0.7,1.9-1.7l0.8-3.6C30.9,32.3,30.6,31.7,30,31.5z M20.4,31.8l7.7,1.8l-0.4,1.9L20,33.7L20.4,31.8z M19.8,17.5
	c1-4.2,5-6.7,9.2-5.7s6.8,5,5.8,9.2c-0.5,2.1-1.7,3.2-3.3,4.7c-1.4,1.3-3,2.9-4.1,5.2L22,29.7c0.1-2.6-0.7-4.7-1.4-6.5
	C19.9,21.1,19.3,19.6,19.8,17.5z M25.1,38.6l-4.2-1v-1l4.7,1.1L25.1,38.6z"/>
<path d="M25.1,18l-2-1.5c1.3-1.7,2.9-2.5,5.1-2.5l0.1,2.5C26.7,16.5,25.8,17.1,25.1,18z"/>
</svg>
