<?xml version="1.0" encoding="utf-8"?>
<!-- Generator: Adobe Illustrator 22.1.0, SVG Export Plug-In . SVG Version: 6.00 Build 0)  -->
<svg version="1.1" id="Overlay" xmlns="http://www.w3.org/2000/svg" xmlns:xlink="http://www.w3.org/1999/xlink" x="0px" y="0px"
	 viewBox="0 0 50 50" style="enable-background:new 0 0 50 50;" xml:space="preserve">
<path d="M25,13.5c6.3,0,11.5,5.2,11.5,11.5c0,6.3-5.2,11.5-11.5,11.5S13.5,31.3,13.5,25C13.5,18.7,18.7,13.5,25,13.5 M25,11
	c-7.7,0-14,6.3-14,14s6.3,14,14,14s14-6.3,14-14S32.7,11,25,11L25,11z"/>
<polygon points="27.2,26.8 29.1,27.9 24.7,30.2 20.9,28.1 22.8,27.1 20.1,25.7 15.5,28.1 24.7,33 34.5,27.9 29.9,25.4 "/>
<path d="M25.3,19.8l3.8,2l-4.4,2.3l-3.8-2L25.3,19.8 M25.3,17l-9.8,5.1l9.2,4.9l9.8-5.1L25.3,17L25.3,17z"/>
</svg>
