<?xml version="1.0" encoding="utf-8"?>
<!-- Generator: Adobe Illustrator 22.1.0, SVG Export Plug-In . SVG Version: 6.00 Build 0)  -->
<svg version="1.1" id="shovel_B" xmlns="http://www.w3.org/2000/svg" xmlns:xlink="http://www.w3.org/1999/xlink" x="0px" y="0px"
	 viewBox="0 0 50 50" style="enable-background:new 0 0 50 50;" xml:space="preserve">
<path d="M20.4,31.1c-0.3,0.3-0.8,0.5-1.2,0.5c-0.5,0-0.9-0.2-1.2-0.5c-0.3-0.3-0.5-0.8-0.5-1.2c0-0.5,0.2-0.9,0.5-1.2l2.8-2.8
	c-1-1.1-1.8-2.1-2.4-2.9L14,27.3c-1.6,1.6-0.7,6.4,0.1,7.7c0.6,0.3,2.4,1,4.5,1c1.5,0,2.6-0.3,3.2-0.9l4.3-4.3
	c-0.8-0.6-1.9-1.4-2.9-2.4L20.4,31.1z"/>
</svg>
