<?xml version="1.0" encoding="utf-8"?>
<!-- Generator: Adobe Illustrator 22.1.0, SVG Export Plug-In . SVG Version: 6.00 Build 0)  -->
<svg version="1.1" id="shovel_A" xmlns="http://www.w3.org/2000/svg" xmlns:xlink="http://www.w3.org/1999/xlink" x="0px" y="0px"
	 viewBox="0 0 50 50" style="enable-background:new 0 0 50 50;" xml:space="preserve">
<path d="M41.3,13.3l-5.7-5.7c-0.4-0.4-0.9-0.6-1.4-0.6c-0.5,0-1,0.2-1.4,0.6L30,10.5c-1.6,1.6-1.6,4.1,0,5.7l0.5,0.5l-7.4,7.4
	c-2.4-2.7-3.8-5-3.8-5c-0.2-0.2-0.4-0.3-0.7-0.3c-0.3,0-0.6,0.1-0.9,0.4l-5.9,5.9c-3.2,3.2-1.4,10.5,0.1,12c0.8,0.8,3.8,1.8,6.7,1.8
	c2,0,4-0.5,5.3-1.7l5.9-5.9c0.5-0.5,0.5-1.2,0.1-1.6c0,0-2.3-1.3-5-3.8l7.4-7.4l0.5,0.5c0.8,0.8,1.8,1.2,2.8,1.2s2.1-0.4,2.8-1.2
	l2.8-2.8C42.1,15.4,42.1,14.1,41.3,13.3z M26.8,30.6l-4.8,4.8c-0.7,0.7-1.9,1-3.5,1c-2.3,0-4.4-0.8-4.9-1.1
	c-0.8-1.2-1.9-6.6-0.1-8.4l4.8-4.8c0.7,1,1.7,2.3,3,3.7L18.2,29c-0.5,0.5-0.5,1.3,0,1.8c0.2,0.2,0.6,0.4,0.9,0.4
	c0.3,0,0.6-0.1,0.9-0.4l3.1-3.1C24.5,28.9,25.8,29.9,26.8,30.6z M36.7,17.2c-0.3,0.3-0.7,0.4-1.1,0.4s-0.8-0.2-1.1-0.4l-2.8-2.8
	c-0.3-0.3-0.4-0.7-0.4-1.1c0-0.4,0.2-0.8,0.4-1.1l2.5-2.5l4.9,4.9L36.7,17.2z"/>
</svg>
