<?xml version="1.0" encoding="utf-8"?>
<!-- Generator: Adobe Illustrator 22.1.0, SVG Export Plug-In . SVG Version: 6.00 Build 0)  -->
<svg version="1.1" id="teacher_edition_A" xmlns="http://www.w3.org/2000/svg" xmlns:xlink="http://www.w3.org/1999/xlink" x="0px"
	 y="0px" viewBox="0 0 50 50" style="enable-background:new 0 0 50 50;" xml:space="preserve">
<path d="M31.1,17.7c0.5-0.1,1.1-0.2,1.6-0.2c-0.7-0.4-1.4-0.7-2.2-0.9c-0.3,0.1-0.7,0.1-1,0.2c-0.4-0.2-0.7-0.4-1.1-0.5
	c-0.9,0-1.9,0.1-2.8,0.4c0.6,0.2,1.3,0.4,2.1,0.6c-0.5,0.2-1,0.4-1.6,0.7c-0.4-0.4-0.7-0.8-1-1.1c-0.4,0.1-0.7,0.3-1,0.5L24,17.5
	c0.3,0.3,0.7,0.7,1,1.1c-0.1,0-0.1,0.1-0.2,0.1c-0.7,0.4-1.3,0.8-1.9,1.3c0.1-0.8,0.2-1.5,0.4-2.1c-0.6,0.4-1.1,1-1.6,1.5
	c-0.1,0.5-0.1,1.1-0.2,1.6c-0.5,0.4-1,0.9-1.4,1.4c-0.2,0.8-0.3,1.6-0.3,2.4c0.5-0.7,1.1-1.4,1.7-2.1c0.1,1.4,0.5,3,1.2,4.5
	c-0.7,0.6-1.4,1.2-1.8,1.6c0,0,0,0,0,0.1c0.2,0.4,0.4,0.7,0.7,1c0.4-0.4,1-1,1.7-1.6c1,1.7,2.2,2.9,3.5,3.7
	c-0.3,0.3-0.5,0.6-0.7,0.8c0.5,0.1,0.9,0.2,1.4,0.2c0.1-0.1,0.3-0.3,0.4-0.4c0.3,0.2,0.6,0.3,0.9,0.4c0.8-0.1,1.7-0.2,2.5-0.6
	c-0.7-0.1-1.5-0.4-2.4-0.8c0.7-0.6,1.5-1.2,2.5-1.7c0.1-0.1,0.2-0.1,0.4-0.2c0.3,0.9,0.5,1.6,0.7,2.2c0,0,0,0,0.1,0
	c0.4-0.2,0.7-0.5,1-0.7c-0.2-0.6-0.4-1.2-0.7-2c0.7-0.3,1.3-0.6,1.9-0.7c-0.1,0.8-0.3,1.5-0.5,2.1c1-1.1,1.8-2.4,2.2-3.7
	c-0.1,0-0.2,0-0.3,0c0-1.6-0.4-3.3-1.3-5.1c0.5-0.2,0.9-0.3,1.3-0.4c-0.1-0.3-0.3-0.7-0.5-1l-0.1-0.1c-0.4,0.1-0.9,0.2-1.4,0.4
	C33.3,19.4,32.2,18.4,31.1,17.7z M22.8,21.6c0.8-0.7,1.7-1.3,2.7-1.9c0.1-0.1,0.2-0.1,0.4-0.2c0.8,1,1.7,2.3,2.7,3.8
	c-0.1,0.1-0.2,0.1-0.3,0.2c-1.7,1-3.2,2-4.4,3C23.1,24.8,22.8,23.1,22.8,21.6z M31.4,28.8c-0.2,0.1-0.4,0.2-0.5,0.3
	c-1.1,0.7-2.2,1.4-3,2.2c-1.2-0.8-2.5-1.9-3.4-3.6c1.2-1,2.7-2,4.5-3c0.1-0.1,0.2-0.1,0.3-0.2c0.1,0.1,0.1,0.2,0.2,0.3
	C30.2,26.2,30.9,27.6,31.4,28.8z M27,19c0.8-0.4,1.6-0.6,2.4-0.9c1.3,0.7,2.6,1.7,3.7,3.1c-1,0.4-2.1,0.9-3.4,1.5
	C28.7,21.2,27.8,20,27,19z M35,27.3c-0.8,0.2-1.6,0.5-2.5,0.9c-0.5-1.2-1.2-2.6-2.1-4.1c-0.1-0.1-0.1-0.2-0.2-0.3
	c1.3-0.7,2.4-1.2,3.4-1.5C34.7,24,35,25.7,35,27.3z"/>
<path d="M37.9,19.2c-2.9-5-9-6.8-14.1-4.5l-1.3-2.2c0.7-0.3,1.4-0.6,2.2-0.8l-0.5-2.5c-1.3,0.4-2.6,0.9-3.9,1.6
	C12.6,15.2,10,25,14.4,32.7s14.3,10.3,22,5.9c1.2-0.7,2.3-1.6,3.3-2.5l-1.9-1.6c-0.5,0.5-1.1,1-1.8,1.5l-1.3-2.2
	C39.3,30.5,40.7,24.2,37.9,19.2z M36.1,20.2c2.5,4.3,1,9.8-3.3,12.3s-9.8,1-12.3-3.3s-1-9.8,3.3-12.3S33.7,15.9,36.1,20.2z
	 M16.7,31.5c-3.6-6.2-1.7-14,4.1-17.9l1.2,2.2c-4.6,3.2-6.1,9.5-3.2,14.5s9,6.8,14.1,4.5l1.2,2.2C27.9,39.9,20.2,37.6,16.7,31.5z"/>
</svg>
