<?xml version="1.0" encoding="utf-8"?>
<!-- Generator: Adobe Illustrator 22.1.0, SVG Export Plug-In . SVG Version: 6.00 Build 0)  -->
<svg version="1.1" id="Video" xmlns="http://www.w3.org/2000/svg" xmlns:xlink="http://www.w3.org/1999/xlink" x="0px" y="0px"
	 viewBox="0 0 50 50" style="enable-background:new 0 0 50 50;" xml:space="preserve">
<path d="M25,13.5c6.3,0,11.5,5.2,11.5,11.5S31.3,36.5,25,36.5S13.5,31.3,13.5,25S18.7,13.5,25,13.5 M25,11c-7.7,0-14,6.3-14,14
	s6.3,14,14,14s14-6.3,14-14S32.7,11,25,11L25,11z"/>
<path d="M31.8,24.6l-9.6-6.1c-0.3-0.2-0.8,0-0.8,0.4v12.2c0,0.4,0.4,0.6,0.8,0.4l9.6-6.1C32.1,25.2,32.1,24.8,31.8,24.6z"/>
</svg>
