<?xml version="1.0" encoding="utf-8"?>
<!-- Generator: Adobe Illustrator 22.1.0, SVG Export Plug-In . SVG Version: 6.00 Build 0)  -->
<svg version="1.1" id="x" xmlns="http://www.w3.org/2000/svg" xmlns:xlink="http://www.w3.org/1999/xlink" x="0px" y="0px"
	 viewBox="0 0 50 50" style="enable-background:new 0 0 50 50;" xml:space="preserve">
<path d="M25,14c6.1,0,11,4.9,11,11s-4.9,11-11,11s-11-4.9-11-11S18.9,14,25,14 M25,10c-8.3,0-15,6.7-15,15s6.7,15,15,15
	s15-6.7,15-15S33.3,10,25,10L25,10z"/>
<path d="M28.2,18L25,21.1L21.8,18c-0.1-0.1-0.3-0.1-0.4,0L18,21.4c-0.1,0.1-0.1,0.3,0,0.4l3.2,3.2L18,28.2c-0.1,0.1-0.1,0.3,0,0.4
	l3.4,3.4c0.1,0.1,0.3,0.1,0.4,0l3.2-3.2l3.2,3.2c0.1,0.1,0.3,0.1,0.4,0l3.4-3.4c0.1-0.1,0.1-0.3,0-0.4L28.9,25l3.2-3.2
	c0.1-0.1,0.1-0.3,0-0.4L28.6,18C28.5,17.9,28.3,17.9,28.2,18z"/>
</svg>
