<?xml version="1.0" encoding="utf-8"?>
<!-- Generator: Adobe Illustrator 22.1.0, SVG Export Plug-In . SVG Version: 6.00 Build 0)  -->
<svg version="1.1" id="x_mark" xmlns="http://www.w3.org/2000/svg" xmlns:xlink="http://www.w3.org/1999/xlink" x="0px" y="0px"
	 viewBox="0 0 30 30" style="enable-background:new 0 0 30 30;" xml:space="preserve">
<path d="M25.4,9.2l-4.6-4.6c-0.1-0.1-0.3-0.1-0.4,0L15,10L9.6,4.6c-0.1-0.1-0.3-0.1-0.4,0L4.6,9.2c-0.1,0.1-0.1,0.3,0,0.4L10,15
	l-5.4,5.4c-0.1,0.1-0.1,0.3,0,0.4l4.6,4.6c0.1,0.1,0.3,0.1,0.4,0L15,20l5.4,5.4c0.1,0.1,0.3,0.1,0.4,0l4.6-4.6
	c0.1-0.1,0.1-0.3,0-0.4L20,15l5.4-5.4C25.5,9.5,25.5,9.3,25.4,9.2z"/>
</svg>
